#!OML:ASF F:\VICON\USERDATA\INSTALL\rory3\rory3.ASF
:FULLY-SPECIFIED
:DEGREES
53
root 0.5673136286285952 18.22166473684149 10.715360784321424 -2.8781591366224326 -0.25140198694882726 -5.037390664296579
lfemur -13.983103649530216 0.18622176310044258 -15.021341012708852
ltibia 68.5165252918508
lfoot -2.3768647065771775 -6.804789144086817
ltoes -6.394751321978735
rfemur -12.55863309689261 3.547107395766826 31.401096598580203
rtibia 30.337568314365463
rfoot -8.338972155469905 -7.951054389263291
rtoes 6.775734983425975
lowerback 11.243463434302212 -0.5015041517046771 2.019225523158937
upperback 0.1089787508323985 0.7526964259509072 2.504572148737453
thorax -6.135660221644148 0.027565010926109662 2.383023028924245
lowerneck -15.449421288528452 -3.3852676083595235 -2.8286811701843866
upperneck 21.46763533032591 -4.499232644130248 1.5804925057889292
head 9.526840174919476 -2.0421543189152214 0.4576611776327529
lclavicle 2.9486100795584543e-16 4.288930667753649e-17
lhumerus -33.49988929824508 2.2795271157824613 81.50110368017134
lradius 27.82971187971566
lwrist 6.911775041011523
lhand -29.13540011189228 21.194194523656066
lfingers 7.125020000000001
lthumb -2.514289797255839 51.325353353442445
rclavicle 2.972283778840684e-16 5.3966593170638644e-17
rhumerus -33.17975703613234 -21.742484677085347 -76.03480440274546
rradius 25.865587228051993
rwrist 6.047780563810383
rhand -17.96752299923888 22.8163366142803
rfingers 7.125020000000001
rthumb 8.34709998599053 -7.005027382325235
54
root 0.5799492173691735 18.1866636666067 11.39903248688244 -2.6943519183119946 -0.9287165742712208 -5.288917556483811
lfemur -18.1397568992675 0.8500669571471278 -14.935934183694977
ltibia 68.40684294070351
lfoot -3.3912108209848926 -5.95381486628901
ltoes -6.2230814231839915
rfemur -11.17749982472843 3.7798006998021636 31.969595151202764
rtibia 30.12022483537126
rfoot -9.11124663812758 -8.09071250321475
rtoes 6.8962890993968005
lowerback 11.266577783000765 -0.15331510185034739 2.5183140657616336
upperback 0.08310345489333243 1.3095637171136842 2.387345636661364
thorax -6.154715575728253 0.2890023259219065 1.761475823065827
lowerneck -15.479788318176833 -3.452748318286931 -2.850563777707401
upperneck 21.52352191495654 -4.59739133557978 1.6944838572327432
head 9.50481902171107 -2.0840974200424194 0.48523542591092106
lclavicle 2.948623221243848e-16 4.2891858999499365e-17
lhumerus -33.86123226405005 2.6138717256756925 81.46491075715069
lradius 27.39332907225302
lwrist 6.8898907138508765
lhand -29.14219943275905 20.933996204899838
lfingers 7.125020000000001
lthumb -2.536794622374673 51.02680705356178
rclavicle 2.9722758851421144e-16 5.396603611376554e-17
rhumerus -31.79783970438895 -20.01538444052108 -77.25259165911976
rradius 27.793290491697327
rwrist 4.77295695901965
rhand -18.02232214456745 22.841653494072144
rfingers 7.125020000000001
rthumb 8.291515631759498 -6.910215396601069
55
root 0.5953535977994091 18.14025708948164 12.058304806913586 -2.3979354514684488 -1.4199543571371542 -5.5915091919120625
lfemur -21.795249287146465 1.2605383723981598 -14.720595291385447
ltibia 65.98052136309161
lfoot -4.252473787347592 -5.204220462070607
ltoes -6.154160732685974
rfemur -9.628013420330916 3.979262412115852 32.6721526596008
rtibia 29.857443176319443
rfoot -9.938827912177484 -8.212900315156817
rtoes 6.694767032287114
lowerback 11.320467052351038 0.1806082867786186 3.065587816600809
upperback 0.025092295350908442 1.8033003343096774 2.301679980867627
thorax -6.170208910246075 0.5420138102948024 1.1043204757685945
lowerneck -15.54268009563423 -3.5041339063036516 -2.8574985910153576
upperneck 21.550781641279745 -4.719998808427965 1.7772346749405439
head 9.489119832657956 -2.1330122874069835 0.4993794634744376
lclavicle 2.9485925996712102e-16 4.289052157188712e-17
lhumerus -34.206292011218146 2.7367745357182054 81.48926610969856
lradius 26.97522455101771
lwrist 7.023139732528732
lhand -29.143935840735487 20.73081333046774
lfingers 7.125020000000001
lthumb -2.531984161286368 50.85425123379096
rclavicle 2.972269482683003e-16 5.396558636476912e-17
rhumerus -30.431185792103378 -18.292434039507427 -78.28475322710692
rradius 29.63984072541312
rwrist 3.4711171143674138
rhand -18.048932925175997 22.885180271099568
rfingers 7.125020000000001
rthumb 8.25909112660444 -6.802020562200105
56
root 0.6115578174459423 18.08775667724066 12.556159498283066 -1.9833662611176432 -1.8471012607912134 -6.038082995566344
lfemur -24.470582379478923 1.4181137423272214 -14.326421031937883
ltibia 61.21897130440452
lfoot -4.021580623577504 -4.63034440840688
ltoes -5.945925313676095
rfemur -7.9280654404262565 4.177676936295718 33.246106371881005
rtibia 29.21527623200096
rfoot -10.578701734117734 -8.357719551662182
rtoes 5.921136540320624
lowerback 11.370106017376049 0.47591320377072666 3.635096051956727
upperback -0.04724817997517222 2.2459044553757552 2.2539979408583655
thorax -6.173628853310044 0.7730039222702295 0.4373802047955957
lowerneck -15.635539478521308 -3.5414929171307197 -2.8573039843179684
upperneck 21.505892735674568 -4.841862128080588 1.8353594102028146
head 9.487517789841327 -2.170783926615749 0.5056335902027921
lclavicle 2.9486258158460334e-16 4.2891764349461684e-17
lhumerus -34.44756068708389 2.7823155448885952 81.57666483277042
lradius 26.577143723797615
lwrist 7.24689751638049
lhand -29.144366412238547 20.5701796698071
lfingers 7.125020000000001
lthumb -2.5210868231689925 50.738670013889745
rclavicle 2.972266910037218e-16 5.396540227437227e-17
rhumerus -29.039011659240415 -16.800393721779354 -79.04226396100594
rradius 31.117528772621206
rwrist 2.1162228991110124
rhand -18.055636880416692 22.91862701842261
rfingers 7.125020000000001
rthumb 8.250870559032851 -6.716106402204319
57
root 0.628392906601227 18.035326963391416 12.917815116013044 -1.4856672814643634 -2.246476675565096 -6.435005109431168
lfemur -26.04921618622027 1.201849817824585 -13.791002338943283
ltibia 53.85610826356517
lfoot -3.773640780292211 -4.315539741611849
ltoes -5.8023088960475295
rfemur -6.117920303359141 4.35833051970663 33.70392726775176
rtibia 28.015593020125696
rfoot -10.739633112348292 -8.523093135058032
rtoes 4.947002716609433
lowerback 11.354399064973189 0.727105364160723 4.151016586474417
upperback -0.11864413437038492 2.620746921481664 2.228628443961858
thorax -6.153084099897495 0.978796051433127 -0.17932081859087745
lowerneck -15.743620630408472 -3.5565987447339156 -2.852003652414937
upperneck 21.36749638406401 -4.9207500852482 1.874724245847848
head 9.482405423942827 -2.1849372914393075 0.5158748462987333
lclavicle 2.948610603686843e-16 4.288923436487161e-17
lhumerus -34.584399232882795 2.7765862287650034 81.66465677797488
lradius 26.194463058990607
lwrist 7.514189240607438
lhand -29.140018767644218 20.445684788986355
lfingers 7.125020000000001
lthumb -2.5061022503954296 50.65356999782272
rclavicle 2.972262168425779e-16 5.396508107386064e-17
rhumerus -27.611387914651644 -15.589967048619055 -79.48044973378421
rradius 32.07738964783417
rwrist 0.8623370890860498
rhand -18.06125925502548 22.913414605045
rfingers 7.125020000000001
rthumb 8.254876280933358 -6.655566848703948
58
root 0.6462187432407935 17.979445886879937 13.157021760327819 -0.9837014443857459 -2.6036415143691496 -6.755599696466707
lfemur -26.783098716711574 0.3111407429563764 -13.065519805766211
ltibia 44.06518023126792
lfoot -3.6134641942450676 -3.825804518907359
ltoes -5.74361250982711
rfemur -4.022851071257277 4.415012367556043 34.14820160888785
rtibia 26.247757243915142
rfoot -10.254157276245762 -8.671609999238292
rtoes 4.254199796504873
lowerback 11.242403595604635 0.9445327521518342 4.56850112835623
upperback -0.18266786418218914 2.9048784608861578 2.201342218550799
thorax -6.108572408867049 1.1560209667337973 -0.691705189440295
lowerneck -15.869006493647959 -3.5637171460267982 -2.856846678545328
upperneck 21.261892719678254 -4.938321376639849 1.9067275608014587
head 9.46486809810081 -2.1785253824961512 0.5150157891934561
lclavicle 2.948607318617028e-16 4.2889995268388765e-17
lhumerus -34.849545068856834 2.5660619060212584 81.60518652415409
lradius 25.817132695134124
lwrist 7.772205780744418
lhand -29.138625768618507 20.324443692074315
lfingers 7.125020000000001
lthumb -2.4744476356719085 50.62183915030006
rclavicle 2.972258034572555e-16 5.396481774887438e-17
rhumerus -26.320729993034593 -14.730879304488482 -79.65119333468736
rradius 32.517027490239606
rwrist -0.03927068155874425
rhand -18.067331494142984 22.891147734664514
rfingers 7.125020000000001
rthumb 8.25226992376286 -6.638834521042901
